<svg width="725" height="170" viewBox="0 0 725 170" fill="none" xmlns="http://www.w3.org/2000/svg">
<path d="M212.7 130.43H224.3C225.19 130.43 225.94 131.05 226.15 131.92C227.68 138.29 234.44 144.23 245.81 144.23C258.07 144.23 266.5 135.8 266.5 124.3V112.04H265.73C261.9 115.87 256.53 121.24 241.97 121.24C222.81 121.24 208.25 106.68 208.25 84.45C208.25 62.22 222.81 47.66 241.97 47.66C256.53 47.66 263.43 54.56 265.73 57.62H266.5L267.75 50.75C267.91 49.85 268.7 49.19 269.62 49.19H279.93C280.98 49.19 281.83 50.04 281.83 51.09V124.3C281.83 144.23 268.8 158.02 245.81 158.02C222.82 158.02 212.6 143.29 210.82 132.61C210.63 131.46 211.54 130.43 212.7 130.43ZM266.5 84.45C266.5 70.65 257.3 61.46 245.04 61.46C232.78 61.46 223.58 70.66 223.58 84.45C223.58 98.24 232.78 107.44 245.04 107.44C257.3 107.44 266.5 98.24 266.5 84.45Z" fill="#005943"/>
<path d="M297.53 49.2H307.13C308.02 49.2 308.79 49.8199 308.99 50.6899L310.19 56.0999H310.96C313.26 53.0299 316.33 49.2 325.52 49.2H337.41C338.46 49.2 339.31 50.0499 339.31 51.0999V61.09C339.31 62.14 338.46 62.99 337.41 62.99H327.05C316.32 62.99 310.96 68.35 310.96 78.93V123.93C310.96 124.98 310.11 125.83 309.06 125.83H297.53C296.48 125.83 295.63 124.98 295.63 123.93V51.0999C295.63 50.0499 296.48 49.2 297.53 49.2Z" fill="#005943"/>
<path d="M339.37 87.52C339.37 63.76 355.46 47.67 377.69 47.67C398.38 47.67 414.48 63.76 414.48 85.22C414.48 87.83 414.23 89.95 414.02 91.29C413.87 92.21 413.08 92.88 412.14 92.88H356.92C355.73 92.88 354.82 93.97 355.05 95.13C357.33 106.87 366.15 114.34 377.69 114.34C386.33 114.34 392.94 109.61 395.61 104.59C395.93 103.98 396.58 103.61 397.26 103.61H409.27C410.68 103.61 411.59 105.09 410.97 106.36C406.34 115.93 395.82 127.37 377.68 127.37C355.45 127.37 339.36 111.28 339.36 87.52H339.37ZM397.67 81.39C398.87 81.39 399.78 80.28 399.54 79.11C397.3 68.1 389.17 60.7 377.69 60.7C365.52 60.7 358.03 68.06 355.22 79.02C354.91 80.22 355.83 81.39 357.07 81.39H397.67Z" fill="#005943"/>
<path d="M420.61 87.52C420.61 63.76 436.7 47.67 458.93 47.67C479.62 47.67 495.72 63.76 495.72 85.22C495.72 87.83 495.47 89.95 495.26 91.29C495.11 92.21 494.32 92.88 493.38 92.88H438.16C436.97 92.88 436.06 93.97 436.29 95.13C438.57 106.87 447.39 114.34 458.93 114.34C467.57 114.34 474.18 109.61 476.85 104.59C477.17 103.98 477.82 103.61 478.5 103.61H490.51C491.92 103.61 492.83 105.09 492.21 106.36C487.58 115.93 477.06 127.37 458.92 127.37C436.69 127.37 420.6 111.28 420.6 87.52H420.61ZM478.91 81.39C480.11 81.39 481.02 80.28 480.78 79.11C478.54 68.1 470.41 60.7 458.93 60.7C446.76 60.7 439.27 68.06 436.46 79.02C436.15 80.22 437.07 81.39 438.31 81.39H478.91Z" fill="#005943"/>
<path d="M507.58 49.2H517.92C518.83 49.2 519.61 49.84 519.78 50.73L521.01 56.87H521.78C521.78 56.87 529.44 47.67 544 47.67C562.39 47.67 574.66 59.93 574.66 79.86V123.94C574.66 124.99 573.81 125.84 572.76 125.84H561.23C560.18 125.84 559.33 124.99 559.33 123.94V79.86C559.33 69.9 551.67 61.47 540.94 61.47C529.44 61.47 521.01 69.9 521.01 79.86V123.94C521.01 124.99 520.16 125.84 519.11 125.84H507.58C506.53 125.84 505.68 124.99 505.68 123.94V51.1C505.68 50.05 506.53 49.2 507.58 49.2Z" fill="#005943"/>
<path d="M606.9 84.9299L584.38 52.1699C583.51 50.9099 584.42 49.1899 585.95 49.1899H598.96C599.59 49.1899 600.18 49.4999 600.53 50.0299L617.03 74.4199C617.38 74.9399 617.97 75.2599 618.6 75.2599H619.65C620.28 75.2599 620.87 74.9499 621.22 74.4199L637.72 50.0299C638.07 49.5099 638.66 49.1899 639.29 49.1899H652.3C653.83 49.1899 654.73 50.9099 653.87 52.1699L631.35 84.9299C630.91 85.5699 630.9 86.3999 631.33 87.0499L654.77 122.9C655.6 124.16 654.69 125.84 653.18 125.84H640.1C639.46 125.84 638.86 125.51 638.51 124.97L621.24 98.3499C620.89 97.8099 620.29 97.4799 619.65 97.4799H618.65C618.01 97.4799 617.41 97.8099 617.06 98.3499L599.79 124.97C599.44 125.51 598.84 125.84 598.2 125.84H585.12C583.61 125.84 582.7 124.16 583.53 122.9L606.97 87.0499C607.39 86.3999 607.38 85.5699 606.95 84.9299H606.9Z" fill="#005943"/>
<path d="M703.56 62.99H663.7C662.65 62.99 661.8 62.14 661.8 61.09V51.0999C661.8 50.0499 662.65 49.2 663.7 49.2H722.1C723.15 49.2 724 50.0499 724 51.0999V61.09C724 61.33 723.95 61.5799 723.86 61.7999L688.39 149.71C688.1 150.43 687.4 150.9 686.63 150.9H673.71C672.36 150.9 671.44 149.54 671.95 148.29L705.32 65.5999C705.82 64.3499 704.9 62.99 703.56 62.99Z" fill="#005943"/>
<path d="M113.18 168.52C107.78 168.52 102.35 166.76 97.82 163.14C95.79 161.52 94.03 159.59 92.6 157.41C91.33 155.48 88.66 154.08 86.25 154.08C83.84 154.08 81.12 155.48 79.85 157.41C75.26 164.35 67.56 168.5 59.25 168.5C45.64 168.5 34.58 157.43 34.58 143.82C34.58 141.2 34.99 138.63 35.79 136.16C36.51 133.96 35.94 131 34.44 129.12C32.92 127.21 30.15 125.98 27.84 126.19C19.55 126.93 11.51 123.5 6.32997 117C-2.15003 106.36 -0.400026 90.81 10.24 82.32C12.29 80.69 14.56 79.4 17 78.49C19.16 77.68 21.11 75.39 21.65 73.04C22.19 70.66 21.42 67.73 19.83 66.06C14.08 60.04 11.75 51.61 13.6 43.51C16.63 30.25 29.88 21.92 43.15 24.95C45.71 25.53 48.13 26.51 50.36 27.84C52.34 29.02 55.35 29.12 57.52 28.08C59.72 27.02 61.53 24.59 61.84 22.3C62.96 14.05 68.1 6.98002 75.59 3.37002C87.85 -2.52998 102.62 2.64001 108.53 14.9C109.67 17.26 110.42 19.77 110.76 22.34C111.07 24.62 112.87 27.04 115.04 28.09C117.23 29.15 120.27 29.05 122.25 27.87C129.4 23.6 138.14 23.21 145.62 26.82C157.88 32.72 163.05 47.5 157.14 59.76C156 62.12 154.51 64.27 152.71 66.15C151.12 67.81 150.35 70.73 150.88 73.07C151.42 75.45 153.39 77.76 155.55 78.57C163.34 81.5 169.1 88.09 170.94 96.19C172.41 102.62 171.28 109.23 167.77 114.81C164.26 120.39 158.79 124.27 152.37 125.74C149.81 126.32 147.21 126.5 144.62 126.26C142.33 126.05 139.57 127.27 138.07 129.15C136.55 131.05 135.97 134.03 136.68 136.23C139.25 144.15 137.69 152.75 132.5 159.25C127.63 165.35 120.44 168.53 113.19 168.53L113.18 168.52ZM86.24 151.5C89.51 151.5 93 153.35 94.75 156C96.03 157.95 97.6 159.68 99.43 161.13C104.04 164.81 109.81 166.47 115.68 165.81C121.54 165.15 126.8 162.25 130.48 157.63C135.12 151.81 136.52 144.11 134.22 137.02C133.24 134.01 133.99 130.1 136.05 127.53C138.12 124.94 141.66 123.39 144.86 123.68C147.18 123.89 149.51 123.74 151.8 123.21C157.55 121.9 162.45 118.42 165.59 113.43C168.73 108.43 169.74 102.52 168.42 96.76C166.77 89.51 161.61 83.61 154.64 80.99C151.67 79.88 149.09 76.86 148.35 73.64C147.61 70.41 148.61 66.67 150.83 64.35C152.44 62.67 153.77 60.75 154.79 58.63C160.08 47.66 155.45 34.43 144.47 29.14C137.77 25.91 129.95 26.26 123.55 30.08C120.83 31.71 116.86 31.84 113.89 30.41C110.9 28.97 108.6 25.86 108.17 22.68C107.86 20.37 107.19 18.13 106.17 16.02C100.89 5.05002 87.66 0.420015 76.68 5.70002C69.98 8.93002 65.38 15.26 64.37 22.65C63.95 25.79 61.58 28.98 58.61 30.41C55.62 31.85 51.76 31.71 49 30.06C47 28.86 44.83 27.99 42.54 27.47C30.67 24.76 18.8 32.21 16.09 44.09C14.43 51.34 16.52 58.89 21.67 64.28C23.86 66.57 24.88 70.41 24.15 73.63C23.41 76.87 20.89 79.8 17.89 80.92C15.71 81.73 13.68 82.89 11.84 84.35C2.31997 91.94 0.749974 105.87 8.33997 115.39C12.98 121.21 20.18 124.28 27.6 123.62C30.76 123.34 34.4 124.93 36.45 127.51C38.48 130.06 39.22 133.94 38.24 136.96C37.52 139.17 37.15 141.48 37.15 143.83C37.15 156.01 47.06 165.92 59.24 165.92C66.68 165.92 73.57 162.21 77.68 155.99C79.42 153.34 82.94 151.5 86.24 151.5ZM86.24 136.24C82.77 136.24 79.57 134.53 77.68 131.67C73.57 125.46 66.68 121.74 59.24 121.74C58.57 121.74 57.9 121.77 57.24 121.83C53.84 122.12 50.52 120.7 48.37 118C46.21 115.28 45.55 111.71 46.61 108.46C48.91 101.37 47.51 93.67 42.87 87.85C42.46 87.33 42.01 86.82 41.55 86.34C39.19 83.88 38.25 80.39 39.01 77.02C39.79 73.63 42.16 70.89 45.37 69.69C52.34 67.07 57.5 61.17 59.15 53.92C59.3 53.27 59.42 52.61 59.51 51.95C59.97 48.57 62.1 45.66 65.22 44.16C68.35 42.65 71.98 42.81 74.92 44.57C81.32 48.39 89.14 48.74 95.84 45.51C96.44 45.22 97.03 44.9 97.6 44.56C100.52 42.81 104.13 42.66 107.25 44.16C110.38 45.67 112.52 48.6 112.98 52C113.98 59.38 118.58 65.72 125.29 68.95C125.89 69.24 126.51 69.5 127.13 69.74C130.32 70.94 132.69 73.66 133.46 77.04C134.23 80.43 133.28 83.93 130.91 86.4C125.76 91.79 123.68 99.33 125.33 106.59C125.48 107.24 125.66 107.89 125.86 108.52C126.91 111.76 126.26 115.31 124.1 118.02C121.93 120.73 118.6 122.17 115.19 121.86C107.77 121.2 100.57 124.27 95.93 130.09C95.51 130.61 95.12 131.16 94.75 131.71C92.87 134.55 89.69 136.25 86.24 136.26V136.24ZM59.24 119.16C67.55 119.16 75.25 123.3 79.84 130.25C81.25 132.39 83.64 133.66 86.24 133.66C88.82 133.66 91.2 132.39 92.6 130.28C93.01 129.66 93.45 129.05 93.91 128.47C99.09 121.97 107.14 118.54 115.42 119.28C117.97 119.51 120.46 118.44 122.08 116.4C123.69 114.38 124.19 111.73 123.4 109.31C123.17 108.61 122.97 107.88 122.81 107.16C120.96 99.06 123.29 90.63 129.04 84.61C130.81 82.76 131.52 80.15 130.94 77.61C130.36 75.09 128.6 73.05 126.22 72.16C125.53 71.9 124.84 71.6 124.17 71.28C116.68 67.67 111.54 60.6 110.42 52.35C110.08 49.82 108.48 47.63 106.13 46.5C103.8 45.38 101.1 45.49 98.93 46.79C98.29 47.17 97.63 47.52 96.96 47.85C89.47 51.46 80.74 51.06 73.59 46.8C71.4 45.49 68.69 45.38 66.34 46.5C64.01 47.62 62.41 49.8 62.07 52.31C61.97 53.04 61.84 53.78 61.67 54.51C59.82 62.61 54.07 69.2 46.28 72.13C43.89 73.03 42.11 75.08 41.53 77.61C40.96 80.13 41.66 82.73 43.41 84.57C43.92 85.11 44.42 85.67 44.88 86.25C50.06 92.75 51.62 101.35 49.06 109.27C48.27 111.7 48.76 114.37 50.38 116.4C51.99 118.42 54.48 119.49 57.02 119.26C57.75 119.2 58.49 119.16 59.22 119.16H59.24ZM86.24 112.48C72.63 112.48 61.57 101.41 61.57 87.8C61.57 74.19 72.64 63.13 86.24 63.13C99.84 63.13 110.91 74.2 110.91 87.8C110.91 101.4 99.84 112.48 86.24 112.48ZM86.24 65.72C74.06 65.72 64.15 75.63 64.15 87.81C64.15 99.99 74.06 109.9 86.24 109.9C98.42 109.9 108.33 99.99 108.33 87.81C108.33 75.63 98.42 65.72 86.24 65.72Z" fill="#005943"/>
</svg>
